<?xml version="1.0" standalone="no"?>
<!DOCTYPE svg PUBLIC "-//W3C//DTD SVG 20010904//EN"
 "http://www.w3.org/TR/2001/REC-SVG-20010904/DTD/svg10.dtd">
<svg version="1.0" xmlns="http://www.w3.org/2000/svg"
 width="955.000000pt" height="1241.000000pt" viewBox="0 0 955.000000 1241.000000"
 preserveAspectRatio="xMidYMid meet">
<metadata>
Created by potrace 1.16, written by Peter Selinger 2001-2019
</metadata>
<g transform="translate(0.000000,1241.000000) scale(0.100000,-0.100000)"
fill="#FFFFFF" stroke="none">
<path d="M4673 12200 c-157 -16 -263 -53 -332 -116 -70 -62 -84 -101 -89 -240
l-4 -120 -95 -18 c-587 -110 -905 -428 -1002 -1003 -75 -445 -38 -975 91
-1296 125 -311 378 -528 736 -633 334 -97 911 -122 1354 -58 607 87 947 361
1078 869 54 210 65 311 65 630 0 307 -7 382 -51 585 -112 506 -419 793 -969
904 l-110 22 -5 130 c-4 112 -8 134 -28 166 -51 82 -141 135 -272 162 -98 19
-264 26 -367 16z m287 -1410 c197 -21 335 -74 424 -163 99 -99 136 -212 136
-417 0 -199 -37 -318 -129 -409 -89 -89 -223 -134 -451 -150 -154 -11 -370 -1
-484 24 -144 31 -271 116 -322 217 -46 90 -58 161 -58 328 0 114 4 171 17 217
59 220 201 321 498 352 118 12 258 12 369 1z"/>
<path d="M1915 10030 c-135 -20 -235 -70 -282 -141 -26 -39 -28 -51 -31 -160
l-4 -117 -66 -17 c-380 -95 -576 -324 -643 -750 -17 -105 -17 -475 0 -580 75
-473 294 -698 762 -780 286 -50 707 -39 968 26 374 93 572 323 637 735 20 131
23 457 5 583 -62 425 -248 655 -613 758 l-98 27 0 96 c0 52 -4 111 -10 130
-24 88 -131 159 -276 185 -83 15 -264 18 -349 5z m426 -1100 c83 -28 119 -51
168 -106 61 -69 76 -125 76 -279 0 -151 -15 -208 -71 -274 -68 -79 -179 -117
-374 -127 -301 -16 -485 50 -551 198 -31 73 -40 285 -14 374 32 114 95 178
214 215 131 41 428 40 552 -1z"/>
<path d="M7315 10030 c-156 -23 -252 -76 -296 -162 -15 -30 -19 -58 -19 -141
l0 -105 -67 -16 c-255 -64 -435 -197 -536 -394 -53 -102 -78 -180 -103 -317
-25 -137 -26 -516 -1 -657 81 -467 320 -684 832 -755 162 -22 545 -22 700 1
353 52 548 156 686 364 93 141 144 326 158 574 9 160 -1 384 -24 505 -33 175
-111 342 -211 452 -81 90 -259 187 -416 227 l-68 16 0 97 c0 151 -40 217 -164
272 -97 43 -322 61 -471 39z m368 -1076 c226 -51 318 -181 304 -431 -15 -279
-136 -366 -512 -367 -238 -1 -348 28 -427 110 -76 80 -109 224 -88 384 25 185
99 265 283 305 91 20 350 19 440 -1z"/>
<path d="M4575 8529 c-656 -95 -1192 -599 -1339 -1259 -34 -153 -46 -298 -47
-575 l0 -230 -18 60 c-75 253 -239 475 -460 623 -343 230 -792 256 -1161 66
-279 -143 -487 -396 -574 -696 -46 -161 -47 -183 -44 -1458 4 -1350 -1 -1251
79 -1455 182 -468 679 -770 1175 -716 275 31 505 140 694 331 l85 85 23 114
c32 160 92 333 171 496 114 233 228 390 415 574 59 57 105 105 104 106 -144
86 -291 267 -368 452 -156 374 -170 1074 -29 1484 95 277 281 489 531 603 126
58 407 136 489 136 17 0 19 9 19 93 0 109 17 155 75 206 82 71 206 103 405
103 194 0 312 -31 395 -103 58 -51 75 -97 75 -206 l0 -93 26 0 c48 0 229 -41
333 -76 541 -180 781 -598 781 -1363 0 -475 -89 -808 -280 -1047 -42 -54 -136
-139 -190 -175 l-24 -16 105 -104 c58 -57 130 -133 159 -169 143 -175 286
-436 359 -655 41 -124 91 -332 91 -379 0 -34 62 -102 160 -175 329 -245 761
-295 1139 -133 134 58 253 141 361 251 183 188 288 407 320 671 14 118 14
2298 -1 2427 -57 517 -458 927 -979 1004 -125 18 -321 7 -445 -26 -321 -84
-601 -314 -743 -612 l-37 -78 -6 245 c-7 258 -18 344 -64 505 -177 613 -688
1069 -1299 1160 -112 16 -360 19 -461 4z"/>
<path d="M4572 6370 c-159 -20 -262 -61 -341 -135 -93 -87 -126 -194 -125
-410 0 -213 29 -310 119 -400 88 -89 220 -132 438 -144 168 -9 366 1 467 24
260 59 361 205 359 519 0 154 -18 235 -69 321 -63 104 -174 173 -341 210 -88
19 -396 28 -507 15z"/>
<path d="M5548 4435 c-8 -9 -201 -45 -327 -62 -93 -12 -202 -17 -421 -17 -313
0 -405 7 -632 51 l-136 26 -69 -48 c-96 -69 -276 -253 -356 -365 -125 -176
-240 -439 -286 -655 -40 -187 -43 -251 -38 -1025 4 -794 3 -769 56 -977 65
-254 205 -518 378 -718 210 -240 497 -411 803 -476 142 -30 401 -33 535 -5
680 141 1182 746 1255 1511 13 143 13 1306 0 1449 -51 531 -308 1000 -699
1274 -32 23 -60 39 -63 37z"/>
</g>
</svg>
